<svg width="30" height="34" viewBox="0 0 30 34" fill="none" xmlns="http://www.w3.org/2000/svg">
<path d="M9.96333 25.2816C9.96365 25.2633 9.96476 25.2449 9.96667 25.2266L9.96333 25.2816ZM9.965 25.0033C9.96555 25.005 9.96611 25.0066 9.96667 25.0083L9.965 25.0033ZM10.0317 28.17C14.495 24.0666 15.0433 23.7433 16.3533 23.6133C22.2733 23.025 26.6667 18.6833 26.6667 13.6733C26.6667 8.23998 21.525 3.66831 15 3.66831C8.475 3.66831 3.33333 8.24165 3.33333 13.6733C3.33333 16.8283 5.29167 19.9516 8.42333 21.935C9.72833 22.76 10.02 23.7966 9.99167 24.8983C9.98913 24.9818 9.98412 25.0651 9.97667 25.1483C10.0133 25.6983 10.03 26.68 10.0317 28.17ZM16.6817 26.9316C16.3733 26.9616 13.9733 29.0583 9.48167 33.2216C9.24298 33.443 8.94468 33.5897 8.6236 33.6435C8.30251 33.6972 7.97271 33.6558 7.67491 33.5243C7.37711 33.3927 7.12435 33.1769 6.94784 32.9033C6.77133 32.6298 6.67879 32.3105 6.68167 31.985C6.715 28.0483 6.7 25.8033 6.64167 25.2516C6.61167 24.9633 6.695 24.785 6.64167 24.7516C2.84667 22.3533 0 18.2916 0 13.675C0 6.30665 6.71667 0.333313 15 0.333313C23.2833 0.333313 30 6.30665 30 13.6733C30 20.535 24.175 26.1883 16.6833 26.9316H16.6817Z" fill="black"/>
</svg>
