<svg width="36" height="30" viewBox="0 0 36 30" fill="none" xmlns="http://www.w3.org/2000/svg">
<path d="M25.8125 0C22.5859 0 19.7609 1.3875 18 3.73281C16.2391 1.3875 13.4141 0 10.1875 0C7.6191 0.0028949 5.15673 1.02447 3.3406 2.8406C1.52447 4.65673 0.502895 7.1191 0.5 9.6875C0.5 20.625 16.7172 29.4781 17.4078 29.8438C17.5898 29.9417 17.7933 29.9929 18 29.9929C18.2067 29.9929 18.4102 29.9417 18.5922 29.8438C19.2828 29.4781 35.5 20.625 35.5 9.6875C35.4971 7.1191 34.4755 4.65673 32.6594 2.8406C30.8433 1.02447 28.3809 0.0028949 25.8125 0ZM18 27.3125C15.1469 25.65 3 18.0766 3 9.6875C3.00248 7.78202 3.76053 5.95529 5.10791 4.60791C6.45529 3.26053 8.28202 2.50248 10.1875 2.5C13.2266 2.5 15.7781 4.11875 16.8437 6.71875C16.9379 6.94801 17.0981 7.1441 17.304 7.28211C17.5099 7.42011 17.7521 7.49379 18 7.49379C18.2479 7.49379 18.4901 7.42011 18.696 7.28211C18.9019 7.1441 19.0621 6.94801 19.1562 6.71875C20.2219 4.11406 22.7734 2.5 25.8125 2.5C27.718 2.50248 29.5447 3.26053 30.8921 4.60791C32.2395 5.95529 32.9975 7.78202 33 9.6875C33 18.0641 20.85 25.6484 18 27.3125Z" fill="black"/>
</svg>
