<svg width="21" height="20" viewBox="0 0 21 20" fill="none" xmlns="http://www.w3.org/2000/svg">
<g id="Home / house-entrance-bold">
<path id="Union" d="M20.875 7.91666C20.8748 7.6586 20.7551 7.41517 20.5508 7.2575L11.3842 0.174163C11.0839 -0.0582171 10.6645 -0.0582171 10.3642 0.174163L1.1975 7.2575C0.993836 7.41551 0.874764 7.65889 0.875 7.91666V19.1667C0.875 19.6269 1.2481 20 1.70833 20H8.375C8.60512 20 8.79167 19.8134 8.79167 19.5833V15.8333C8.79167 14.6827 9.72441 13.75 10.875 13.75C12.0256 13.75 12.9583 14.6827 12.9583 15.8333V19.5833C12.9583 19.8134 13.1449 20 13.375 20H20.0417C20.5019 20 20.875 19.6269 20.875 19.1667V7.91666Z" fill="#373D42"/>
</g>
</svg>
