<svg width="24" height="24" viewBox="0 0 24 24" fill="none" xmlns="http://www.w3.org/2000/svg">
<path fill-rule="evenodd" clip-rule="evenodd" d="M0 5.05953C0 5.53268 0.384 5.91668 0.857143 5.91668H23.1429C23.616 5.91668 24 5.53268 24 5.05953C24 4.58639 23.616 4.20239 23.1429 4.20239H0.857143C0.384 4.20239 0 4.58639 0 5.05953ZM0.857143 12.7738C0.384 12.7738 0 12.3898 0 11.9167C0 11.4435 0.384 11.0595 0.857143 11.0595H23.1429C23.616 11.0595 24 11.4435 24 11.9167C24 12.3898 23.616 12.7738 23.1429 12.7738H0.857143ZM0.857143 19.631C0.384 19.631 0 19.247 0 18.7738C0 18.3007 0.384 17.9167 0.857143 17.9167H23.1429C23.616 17.9167 24 18.3007 24 18.7738C24 19.247 23.616 19.631 23.1429 19.631H0.857143Z" fill="white"/>
</svg>
