<svg width="24" height="24" viewBox="0 0 24 24" fill="none" xmlns="http://www.w3.org/2000/svg">
<path fill-rule="evenodd" clip-rule="evenodd" d="M14.9545 4.04549C14.9545 5.67724 13.6317 7.00003 12 7.00003C10.3682 7.00003 9.04541 5.67724 9.04541 4.04549C9.04541 2.41374 10.3682 1.09094 12 1.09094C13.6317 1.09094 14.9545 2.41374 14.9545 4.04549ZM14.9545 12C14.9545 13.6318 13.6317 14.9546 12 14.9546C10.3682 14.9546 9.04541 13.6318 9.04541 12C9.04541 10.3683 10.3682 9.04548 12 9.04548C13.6317 9.04548 14.9545 10.3683 14.9545 12ZM12 22.9091C13.6317 22.9091 14.9545 21.5863 14.9545 19.9546C14.9545 18.3228 13.6317 17 12 17C10.3682 17 9.04541 18.3228 9.04541 19.9546C9.04541 21.5863 10.3682 22.9091 12 22.9091Z" fill="white"/>
</svg>
